# xmcd
#
# Track frame offsets:
#	150
#	22772
#	40932
#	56585
#	83127
#	101235
#	120045
#	137052
#	154880
#	167970
#
# Disc length: 2465 seconds
#
# Revision: 0
# Processed by: cddbd v1.4PL0 Copyright (c) Steve Scherf et al.
# Submitted via: dBpowerAMP V4.0
#
DISCID=77099f0a
DTITLE=Syv‰ Sininen - Jotain Sinist‰
DYEAR=2002
DGENRE=Gospel
TTITLE0=Kiitos Ja Anteeksi
TTITLE1=Min‰ Laulan Vain
TTITLE2=Yksi Puuttuu
TTITLE3=En Laula Vain
TTITLE4=Ajattelen Sua
TTITLE5=H‰n On T‰‰ll‰ T‰n‰‰n
TTITLE6=Otsa Hiess‰
TTITLE7=Olet Perill‰
TTITLE8=Kerran Taivaassa
TTITLE9=Et Mua Hylk‰‰
EXTD=
EXTT0=
EXTT1=
EXTT2=
EXTT3=
EXTT4=
EXTT5=
EXTT6=
EXTT7=
EXTT8=
EXTT9=
PLAYORDER=
